Patient4_TMGait_0pt6_01_right_42_EMG.mot
version=1
nRows=29
nColumns=33
inDegrees=no
endheader
time	1LAddLong	2LGlutMax	3LGlutMed	4LIliopsoas	5LSemiMemb	6LBicFemLong	7LRecFem	8LVastMed	9LVastLat	10LGasMed	11LTibAnt	12lTibPost	13LPeroneusLong	14LSol	15LExtDigLong	16LFlexDigLong	17RAddLong	18RGlutMax	19RGlutMed	20RIliopsoas	21RSemiMemb	22RBicFemLong	23RRecFem	24RVastMed	25RVastLat	26RGasMed	27RTibAnt	28RTibPost	29RPeroneusLong	30RSol	31RExtDigLong	32RFlexDigLong
50.51	0.003662	-0.103	0.092773	0.009155	-0.000916	0.000153	0.09964	0.010529	-0.013275	-0.026093	-0.093079	0.00412	-0.007935	0.1033	0.66727	0.013885	-0.042114	-0.13901	0.028687	-0.009003	0.055237	-0.029144	-0.029297	0.030365	-0.009613	-0.03479	0.027924	-0.00473	0.25589	0.39017	-0.003662	-0.011597
50.511	0.001678	-0.11185	0.10513	-0.010681	0.014038	-0.007629	0.10803	0.012512	-0.073242	-0.036469	-0.028534	-0.000458	0.10712	0.12283	0.68329	0.015106	-0.042114	-0.12222	0.046692	0.064392	0.086517	-0.012665	-0.015259	0.030518	-0.007172	-0.025787	0.041199	-0.006409	0.056915	0.2887	-0.001221	-0.013885
50.512	0.007782	-0.10605	0.043488	-0.001221	-0.001526	-0.014801	0.13138	-0.003967	-0.079651	-0.041046	0.075073	-0.000153	0.035706	0.071716	0.27588	0.002136	-0.037384	-0.12039	0.11948	0.097351	0.056152	0.029144	-0.016937	0.005798	-0.020294	-0.021362	0.063934	-0.003815	-0.16693	0.19486	-0.004578	-0.009918
50.513	0.003815	-0.08316	-0.010529	0.010986	0	0.002899	0.13382	0.000305	-0.039978	-0.021973	0.16205	0.001068	-0.075836	0.078735	-0.6044	0.003204	0.016479	-0.14008	0.049591	-0.008545	-0.10681	0.058899	-0.056915	-0.07431	-0.007324	-0.020142	-0.21286	-0.003357	-0.035858	0.10712	-0.003052	-0.010681
50.514	-0.006866	-0.059052	0.007629	0.007324	-0.001373	0.006256	0.14969	0.015106	-0.043945	-0.007782	-0.11551	0.004425	-0.016327	0.044098	-0.90759	0.006866	0.04303	-0.18295	-0.021362	-0.18295	-0.097656	0.021057	-0.061493	-0.094299	-0.019684	-0.027008	-0.31891	0.001068	-0.098572	0.034027	-0.003815	-0.014038
50.515	-0.002899	-0.045624	0.11307	0.007629	-0.001221	0.019684	0.13962	0.006561	0.019836	0.008087	-0.037842	0.012665	0.019684	-0.1091	-0.66208	0.010834	0.042725	-0.15625	-0.02655	-0.29953	-0.094299	-0.011749	-0.084534	-0.12558	-0.024109	-0.028381	-0.078583	-0.002136	-0.25024	0.058899	-0.003052	-0.00946
50.516	0.005341	-0.039215	0.029449	0.015869	-0.011597	-0.013428	0.1709	-0.010223	0.045776	-0.005493	0.07309	0.007019	0.050659	-0.1355	-0.53802	0.00473	0.028534	-0.18478	0.097809	-0.23727	-0.068207	0.02182	-0.087128	-0.1091	-0.020447	-0.028229	0.018005	-0.000153	-0.27237	0.053406	-0.003967	-0.01236
50.517	0.010223	-0.028534	0.013123	0.013123	-0.027466	-0.011444	0.18143	-0.002441	-0.06897	-0.078735	0.095825	0.003052	0.11276	-0.050507	-0.35309	-0.005341	0.003357	-0.20645	-0.009308	-0.026398	-0.063934	0.032501	-0.11246	-0.18814	-0.016022	-0.02182	0.087433	-0.006409	-0.23056	0.032349	0	-0.003052
50.518	0.007172	-0.014038	-0.10986	0.005035	-0.019073	-0.009766	0.1384	0.008545	-0.14221	-0.059967	0.29739	-0.000153	0.002747	-0.10895	0.22476	-0.000763	0.010834	-0.12482	-0.1973	0.18799	-0.045776	0.045166	-0.15076	-0.19852	-0.008698	-0.012207	0.1413	-0.001984	0.083313	-0.004272	-0.000916	-0.010834
50.519	0.010071	0.000458	-0.037689	0.028992	-0.012207	-0.037537	0.14267	0.00061	-0.039368	-0.028992	0.15411	0.003204	-0.047302	-0.07782	0.26123	0.009918	0.061493	-0.11551	-0.21988	0.17822	-0.017395	0.041656	-0.12405	-0.19119	-0.00824	-0.006256	0.043335	-0.00351	0.016632	0.002289	-0.002747	-0.011139
50.52	0.003967	0.001221	0.00473	0.014343	0.018311	-0.045929	0.18341	0.005188	-0.041962	-0.012054	-0.048218	0.004425	-0.019531	0.068359	0.012665	-0.00885	0.069885	-0.074005	0.043945	0.024261	-0.008698	0.032196	-0.10086	-0.17319	0.001068	0.006104	-0.061035	-0.005798	0.010376	0.023193	-0.00351	-0.009766
50.521	0.005493	-0.026398	0.08255	-0.003815	0.019836	-0.020599	0.20447	0.003204	-0.059814	0.005188	-0.25299	0.004578	-0.034332	0.009766	-0.044861	-0.29221	0.045319	-0.027313	0.40848	-0.022736	-0.038605	0.022888	-0.042877	-0.1709	0.018768	0.010986	0.19333	-0.006866	0.1062	0.022278	-0.000763	-0.004425
50.522	0.007172	0.020447	0.015106	0.005951	-0.003204	-0.046539	0.15595	0.007019	-0.051575	0.015564	-0.16266	-0.00412	-0.058441	-0.14618	-0.027771	-0.34515	0.017395	0.055847	0.42938	0.050354	-0.098419	0.075378	0.017853	-0.11932	0.013885	0.024872	0.36499	-0.001678	0.17792	-0.089417	-0.002441	-0.00885
50.523	0.001526	0.000458	0.055237	-0.009003	0.001373	-0.012817	0.17303	0.000763	-0.059204	-0.026855	-0.019989	0.006866	-0.041199	-0.20905	0.11993	0.53802	-0.001526	0.023193	0.33188	0.033875	-0.092621	0.092163	0.036163	-0.021973	0.03067	0.031128	0.41107	-0.003204	0.077209	-0.17364	-0.001373	-0.005188
50.524	0.006104	0.008087	0.054474	-0.014038	0.001221	-0.012817	0.15823	0.00824	-0.061646	-0.022888	0.018158	0.000305	-0.022278	-0.15991	0.080719	0.67795	-0.040436	-0.00351	0.55145	-0.058136	0.017395	0.023346	0.015717	-0.048065	0.035095	0.033417	0.30456	-0.003204	-0.20081	-0.11704	-0.001526	-0.003662
50.525	0.002136	-0.016327	0.058594	-0.00061	0.007019	0.024719	0.1709	0.009918	-0.058899	-0.018158	0.032196	0.005188	-0.000916	-0.14343	0.093994	-0.43579	-0.063477	0.025635	0.2153	-0.009003	0.13275	-0.018463	0.018158	-0.030518	-0.000916	0.031128	0.29098	0.007782	-0.26169	-0.047302	-0.002747	-0.002747
50.526	-0.00061	-0.037537	0.083923	-0.002594	0.002747	0.005646	0.16556	0.009918	-0.062256	-0.11292	0.036163	0.009308	0.017242	-0.043793	0.11795	0.37125	-0.024109	0.019379	-0.2446	0.012817	0.079041	-0.051422	0.10529	-0.016327	-0.008545	0.028381	0.39414	-0.004578	-0.15182	-0.05188	-0.003662	-0.00061
50.527	0.001984	-0.063171	0.007324	0.006866	0.002594	-0.00885	0.18768	-0.000458	-0.054321	-0.13397	0.04837	-0.002594	0.006866	0.072479	0.097198	0.20966	0.034637	-0.063019	-0.46127	0.041199	-0.21622	-0.095978	0.057831	-0.057373	-0.024261	0.038605	0.13077	-0.001678	-0.041656	-0.052338	-0.001526	0.005798
50.528	0.011292	-0.039215	0.007782	0.009308	-0.002747	-0.006256	0.22553	0.010986	-0.06897	-0.1001	0.062561	-0.005493	-0.02182	0.12863	0.083008	0.17777	0.061951	-0.026398	-0.067291	0.039978	-0.32928	-0.088043	0.003967	-0.087433	-0.031586	0.022278	0.054779	-0.004272	-0.032196	-0.029297	-0.005188	0.005188
50.529	-0.001373	-0.021515	-0.058441	-0.008392	-0.001526	-0.006256	0.2179	0.011292	-0.07843	-0.033875	-0.037994	0.003052	0.0177	-0.031433	0.10529	-0.15152	0.063019	-0.021515	0.08606	0.032501	-0.26596	-0.063477	-0.015259	-0.11246	-0.031281	0.009155	0.078888	0.007782	-0.031738	-0.011902	-0.001068	-0.009003
50.53	0.00351	-0.027008	-0.057831	0.000153	-0.000763	-0.014343	0.16754	0.010834	-0.037231	0.053406	-0.059204	0.010529	0.03952	-0.11108	0.13702	-0.04303	0.037079	-0.028534	0.13092	0.053711	0.21164	-0.021973	0.026855	-0.086365	-0.024109	-0.005493	-0.095062	-0.004578	-0.013733	0.005493	-0.001221	-0.00473
50.531	0.003357	-0.023499	0.017548	0.007782	-0.007172	-0.007172	0.16022	0.00412	0.005646	0.12253	-0.097656	-0.002899	0.016937	-0.030823	0.13992	0.006714	-0.006561	-0.007629	-0.085602	0.019684	0.3862	0.005035	0.11978	-0.074768	-0.009155	-0.014954	-0.20309	-0.003204	0.06485	0.038147	0.001984	0.003204
50.532	0.007019	-0.060577	-0.054474	-0.00412	-0.036316	0	0.11612	0.007019	-0.02655	0.12116	-0.027313	0.003357	0	0.002136	0.12421	0.090637	-0.056305	-0.034943	-0.30716	-0.032806	0.20035	-0.032501	0.15945	-0.083771	0.005493	-0.034485	-0.17487	-0.002136	0.13611	0.019531	-0.002136	0.00061
50.533	0.006866	-0.005798	-0.038452	-0.003967	0.001984	-0.021973	0.075073	0.009613	-0.025635	0.11566	0.020447	-0.004425	-0.028076	0.008392	0.21896	-0.35736	-0.058289	-0.010529	-0.32715	-0.027161	0.10315	0.027161	0.14175	-0.017853	0.006561	-0.04715	-0.057678	-0.001221	0.091553	0.001526	0.000153	0.000916
50.534	0.008545	0.036316	-0.065155	0.014191	-0.004425	-0.011292	0.11276	-0.000763	-0.026855	0.10376	0.028839	0.00885	0.006866	0.093384	0.29037	0.061493	-0.040741	0.022736	-0.21027	-0.023499	0.050049	0.003967	0.11871	0.02182	0.001221	-0.054321	0.082703	-0.002136	0.12711	-0.045166	-0.001984	-0.010376
50.535	0.010376	0.033722	-0.080566	0.014343	-0.00412	-0.016632	0.075684	-0.00473	-0.034485	0.062408	0.007782	0.010223	0.036316	0.080872	0.31937	0.15366	-0.015564	0.048523	-0.028992	-0.074463	0.088043	-0.028229	0.10086	-0.006866	-0.001678	-0.066528	0.11459	-0.009155	0.17197	-0.031738	-0.00061	-0.003815
50.536	0.00473	0.018158	0.02121	0.001526	-0.002136	-0.036163	0.001373	0.000153	0.027924	0.046539	0.049744	0.007019	0.030975	0.075989	-0.004578	0.056915	-0.012054	0.04776	-0.12009	-0.056152	0.025787	0.004425	0.073547	-0.051727	-0.018311	-0.063324	0.09903	-0.004578	0.14694	-0.036316	0	-0.001373
50.537	0.009918	-0.023651	0.099182	-0.009155	-0.003357	-0.040436	0.014343	0.006256	0.007477	0.037537	0.056763	-0.000153	0.019531	0.050964	-0.007019	0.001373	-0.019226	0.023041	-0.16861	0.10483	-0.12497	0.064087	0.07309	-0.029755	-0.028534	-0.062256	0.082092	-0.00824	0.12222	-0.007629	-0.001221	0.000763
50.538	0.00885	-0.027618	0.025635	0.005035	-0.006409	-0.027618	0.11246	-0.001221	0.019379	0.009918	0.049744	-0.002136	-0.004425	-0.038452	0.012207	-0.010376	-0.041504	0.009003	-0.10193	0.1944	-0.089111	0.08728	0.03891	0.030518	-0.011292	-0.053558	0.051422	-0.003204	0.077209	-0.007629	-0.005341	-0.002899
